<?xml version="1.0" encoding="UTF-8" standalone="no"?>
<!-- Created with Inkscape (http://www.inkscape.org/) -->

<svg
   xmlns:dc="http://purl.org/dc/elements/1.1/"
   xmlns:cc="http://creativecommons.org/ns#"
   xmlns:rdf="http://www.w3.org/1999/02/22-rdf-syntax-ns#"
   xmlns:svg="http://www.w3.org/2000/svg"
   xmlns="http://www.w3.org/2000/svg"
   xmlns:sodipodi="http://sodipodi.sourceforge.net/DTD/sodipodi-0.dtd"
   xmlns:inkscape="http://www.inkscape.org/namespaces/inkscape"
   width="120"
   height="120"
   id="svg2"
   sodipodi:version="0.32"
   inkscape:version="0.48.4 r9939"
   sodipodi:docname="Detector_eye.svg"
   inkscape:output_extension="org.inkscape.output.svg.inkscape"
   version="1.1">
  <defs
     id="defs4" />
  <sodipodi:namedview
     id="base"
     pagecolor="#ffffff"
     bordercolor="#666666"
     borderopacity="1.0"
     gridtolerance="10000"
     guidetolerance="10"
     objecttolerance="10"
     inkscape:pageopacity="0.0"
     inkscape:pageshadow="2"
     inkscape:zoom="2.4914328"
     inkscape:cx="207.18044"
     inkscape:cy="149.40684"
     inkscape:document-units="px"
     inkscape:current-layer="layer1"
     inkscape:window-width="1200"
     inkscape:window-height="953"
     inkscape:window-x="1366"
     inkscape:window-y="25"
     showgrid="false"
     inkscape:window-maximized="0" />
  <metadata
     id="metadata7">
    <rdf:RDF>
      <cc:Work
         rdf:about="">
        <dc:format>image/svg+xml</dc:format>
        <dc:type
           rdf:resource="http://purl.org/dc/dcmitype/StillImage" />
      </cc:Work>
    </rdf:RDF>
  </metadata>
  <g
     inkscape:label="Layer 1"
     inkscape:groupmode="layer"
     id="layer1">
    <path
       style="fill:#a97a21;fill-opacity:1;fill-rule:evenodd;stroke:none"
       d="m 32.017211,90.95392 c -1.57811,-12.459592 3.10576,-25.401957 9.72669,-36.301382 4.02383,-6.005044 14.28064,-24.214178 21.542892,-15.456517 4.787153,6.495994 4.676738,16.027171 1.790581,24.053099 -3.464763,11.281383 -9.846923,21.746746 -18.085313,30.090719 -3.43697,2.594446 -8.81161,2.365175 -10.82444,-1.437395"
       id="path3359"
       sodipodi:nodetypes="cccccc"
       inkscape:connector-curvature="0" />
    <path
       style="fill:#000000;fill-opacity:1;stroke:none"
       id="path3317"
       d="M 87.417298,62.916283 C 85.519101,60.552509 83.918162,58.080025 82.416656,55.577598 79.759724,51.945088 73.223951,33.898806 79.114987,49.457388 76.887512,42.462802 75.30403,35.51982 74.184632,28.675056 74.07817,27.812817 73.971721,26.950576 73.865277,26.088341 l -0.333751,-0.691867 c -0.174068,0.292231 -0.348138,0.584471 -0.522217,0.876705 -1.286906,3.945246 -0.198521,8.762955 1.076083,13.482799 3.101618,8.847965 5.663057,17.938456 10.866464,26.685355 1.499706,2.331761 3.014843,4.730357 5.147341,6.749892 L 87.417298,62.916283 z"
       inkscape:connector-curvature="0" />
    <path
       style="fill:#000000;fill-opacity:1;stroke:none"
       id="path3319"
       d="m 72.329467,49.567005 c -1.075,-2.531323 -2.116098,-5.073767 -3.138343,-7.623 C 67.484009,37.326161 66.202472,32.599183 64.880959,27.888592 63.193384,21.691309 61.456538,15.502373 59.334732,9.406257 59.106174,8.692684 58.877615,7.979119 58.649068,7.265539 58.556272,7.020365 58.463479,6.775191 58.370704,6.530011 L 57.929853,5.361104 c 1.169028,7.047391 0.58156,3.685733 1.747196,10.086538 1.653468,8.241494 3.691602,16.419321 5.923619,24.565507 1.282498,4.695281 2.513206,9.433339 4.465398,13.954325 0.980114,2.06452 1.973634,4.121964 3.048908,6.146772 L 72.329467,49.567005 z"
       inkscape:connector-curvature="0" />
    <path
       style="fill:#000000;fill-opacity:1;stroke:none"
       id="path3321"
       d="m 62.546871,38.283695 c -1.396129,-2.456977 -2.810927,-4.903852 -4.199083,-7.365287 -2.091906,-3.446087 -3.519866,-7.152658 -4.804106,-10.898799 -1.38328,-4.548096 -2.74525,-9.063508 -4.7648,-13.422429 -0.2824,-0.589808 -0.56482,-1.179621 -0.84722,-1.769438 l 0.10811,1.6625 c 0.33407,1.393442 0.66815,2.78687 1.00219,4.180308 1.55496,6.5476 3.00447,13.126885 5.21152,19.547174 1.20789,3.20359 2.59973,6.326136 4.889104,9.003466 1.330921,1.546877 2.685054,3.073212 3.933297,4.685003 l -0.529012,-5.622498 z"
       inkscape:connector-curvature="0" />
    <path
       style="fill:#000000;fill-opacity:1;stroke:none"
       id="path3323"
       d="M 108.68671,97.477751 C 107.7352,95.083008 106.61213,92.745387 105.46084,90.414894 104.02988,87.714085 102.3359,85.1283 100.68269,82.530343 98.927326,79.821631 97.199355,77.099012 95.444654,74.390007 93.95792,71.992622 92.306228,69.688976 90.616826,67.406211 88.864813,65.150869 86.954993,63.012392 85.065109,60.85755 83.238632,58.872015 81.436002,56.867404 79.621483,54.872521 77.979829,53.07575 76.322377,51.294013 74.65557,49.517148 72.872633,47.71289 71.052314,45.94311 69.235529,44.169128 c -2.192928,-2.131076 -4.233309,-4.37326 -6.196685,-6.691364 -1.569388,-2.621572 -2.872491,-3.34366 -4.968043,-3.7964 -0.515409,0.283772 -0.903256,0.710294 -1.354886,1.065437 l 0.528563,3.999877 c 1.42683,3.517287 0.718691,1.741896 2.12341,5.326482 1.464723,3.824853 3.104305,7.516421 5.957485,10.738273 2.048679,2.288073 4.119105,4.568424 6.390574,6.668919 1.789494,1.704254 3.582582,3.406632 5.348048,5.133233 1.649286,1.598178 3.300268,3.19369 4.850447,4.880561 1.798059,1.853134 3.617909,3.688175 5.364451,5.58547 1.859803,1.988192 3.700163,3.999712 5.343552,6.150523 1.592589,2.057407 3.164389,4.128029 4.617782,6.270761 1.728031,2.545448 3.474263,5.081019 5.164183,7.647345 1.5831,2.391925 3.17346,4.781845 4.56347,7.268815 1.03686,1.90582 2.0678,3.81536 2.99157,5.76443 l -1.27274,-12.703739 z"
       inkscape:connector-curvature="0" />
    <path
       style="fill:#000000;fill-opacity:1;stroke:none"
       id="path3349"
       d="m 110.29193,109.48072 c -2.90671,-1.44945 -0.0229,-2.49111 -3.08854,-3.61241 -4.8678,-1.78051 -9.806752,-3.39243 -14.748193,-4.9977 C 86.96495,99.1096 81.237384,98.04283 75.523983,96.96464 69.979293,96.03247 64.445848,95.06153 58.920349,94.05907 53.172662,92.996697 47.504952,91.671161 41.819732,90.40412 c -5.8674,-1.267625 -13.7016,-2.595107 -19.46857,-4.165385 l -7.1731,0.0176 c 0.64308,1.854977 2.75124,1.567437 4.5951,2.528246 4.32006,1.880309 12.82913,5.239716 17.60725,5.982456 5.65872,1.04333 11.33106,2.03668 17.03425,2.91557 5.915233,1.02637 11.849896,2.01468 17.57635,3.65631 5.335447,1.4828 10.565229,3.22742 15.820949,4.91509 3.623719,1.15368 7.242714,2.31962 10.87719,3.44674 l 11.602779,-0.22003 z"
       sodipodi:nodetypes="csccccccccccccc"
       inkscape:connector-curvature="0" />
    <path
       style="fill:#000000;fill-opacity:1;stroke:none"
       id="path3357"
       d="m 61.855156,41.813978 c -1.605008,-1.326387 -3.275743,-2.568564 -4.946185,-3.810331 -1.371371,-1.1251 -2.758319,-2.230672 -4.136579,-3.345868 -1.39347,-1.179116 -2.86111,-2.267344 -4.3055,-3.38166 -1.32268,-1.079116 -2.56919,-2.245633 -3.8196,-3.405828 -1.53807,-1.353911 -2.99954,-2.787071 -4.47246,-4.209183 -1.28987,-1.246377 -2.46966,-2.595772 -3.67058,-3.925401 -1.27093,-1.491813 -2.56118,-2.967203 -3.84823,-4.444409 -0.46002,0.711827 -4.35213,-7.106255 0.05356,1.739537 l -2.24381,-2.775451 c 2.14544,4.03003 4.1349,8.16015 6.57405,12.024181 1.38194,1.910519 2.76699,3.816736 4.39806,5.529716 1.21332,1.305363 2.41242,2.625005 3.73026,3.828717 1.4443,1.315983 2.87299,2.650582 4.38658,3.887734 1.19521,0.989763 2.35806,2.020708 3.69506,2.826236 1.32748,0.891522 2.641024,1.8063 3.996572,2.654945 1.263083,0.845803 2.526067,1.692659 3.794537,2.531119 1.586984,1.095383 3.191637,2.166615 4.70811,3.361311 l -3.893845,-9.085365 z"
       inkscape:connector-curvature="0" />
    <path
       style="fill:#000000;fill-opacity:1;fill-rule:evenodd;stroke:#000000;stroke-width:1.27730322px;stroke-linecap:butt;stroke-linejoin:miter;stroke-opacity:1"
       d="M 54.09953,56.47894 C 52.155005,63.818407 50.462708,71.21782 44.550544,76.012825 43.057587,77.515909 29.59451,88.707454 32.499202,74.01323 32.50377,70.758246 36.329573,65.315185 37.732128,62.520719 40.087951,57.567896 43.79282,49.895065 46.791363,45.173863 53.392766,37.56271 58.91763,44.387943 54.09953,56.47894 z"
       id="path3468"
       sodipodi:nodetypes="cccccc"
       inkscape:connector-curvature="0" />
    <path
       style="fill:none;stroke:#000000;stroke-width:3.24899769;stroke-linecap:butt;stroke-linejoin:miter;stroke-miterlimit:4;stroke-opacity:1;stroke-dasharray:none"
       d="m 53.1059,39.669757 c -0.217072,3.788542 -6.510429,6.96185 -8.925857,9.827738 -4.272674,5.378966 -4.762715,9.090205 -7.251704,14.433006 -1.190868,2.392908 -1.97531,4.919088 -2.946074,7.26398 -0.965681,2.332613 -1.452759,5.090456 -1.964049,7.501365 -0.558814,2.635007 -0.423089,5.332668 -0.930338,7.928658 -0.338599,1.732871 0.540436,3.452977 0.930338,4.985084"
       id="path3742"
       sodipodi:nodetypes="cccsssc"
       inkscape:connector-curvature="0" />
    <path
       style="fill:none;stroke:#000000;stroke-width:3.08373404;stroke-linecap:butt;stroke-linejoin:miter;stroke-miterlimit:4;stroke-opacity:1;stroke-dasharray:none"
       d="m 68.041693,54.086563 c -1.658997,10.609506 -3.727756,19.113324 -10.974809,27.755788 -3.387315,3.4879 -7.266537,6.467304 -10.531111,10.078567"
       id="path3744"
       sodipodi:nodetypes="ccc"
       inkscape:connector-curvature="0" />
    <path
       style="fill:#000000;fill-opacity:1;stroke:none"
       id="path3785"
       d="m 42.934312,90.731002 c -1.819288,0.04834 -3.639382,0.04218 -5.459135,0.04609 -6.303095,-1.501094 -13.110845,0.730762 -18.750825,1.067615 0.67548,0.68882 1.80317,1.173453 2.70151,1.653315 l 3.0068,0.234716 c 2.69998,-0.193725 5.393231,-0.441402 8.106294,-0.371598 1.217974,-0.0152 4.87101,-0.103557 3.653713,-0.0602 -5.067331,0.1805 -10.134707,0.359784 -15.202057,0.539677 0.26172,-0.02069 0.52344,-0.04139 0.78516,-0.06208 1.79502,-0.01438 3.59019,-0.03837 5.38525,-0.02416 l 15.77329,-3.023385 z"
       inkscape:connector-curvature="0" />
    <path
       style="fill:#000000;fill-rule:evenodd;stroke:#000000;stroke-width:1.11350298px;stroke-linecap:butt;stroke-linejoin:miter;stroke-opacity:1"
       d="m 97.549476,87.676714 c 0.547361,1.108973 1.094721,2.217944 1.642082,3.326915 1.207312,2.446063 1.415172,4.866283 0.2971,7.037701 -1.557795,3.02542 -5.98496,4.00471 -9.663052,5.20364 -0.263802,0.086 3.844361,-0.0191 6.750784,0.29857 3.187644,0.3484 6.56304,1.82676 9.00105,2.38855 5.35359,1.23365 3.97742,-0.715 2.85843,-3.54017 -1.00714,-2.5428 -3.02748,-5.209149 -4.31806,-7.634848 -1.95045,-3.665932 -3.20069,-3.108244 -6.568334,-7.080358 z"
       id="path3936"
       sodipodi:nodetypes="csssssssc"
       inkscape:connector-curvature="0" />
  </g>
</svg>
