<?xml version="1.0" encoding="UTF-8" standalone="no"?>
<!-- Created with Inkscape (http://www.inkscape.org/) -->

<svg
   xmlns:dc="http://purl.org/dc/elements/1.1/"
   xmlns:cc="http://creativecommons.org/ns#"
   xmlns:rdf="http://www.w3.org/1999/02/22-rdf-syntax-ns#"
   xmlns:svg="http://www.w3.org/2000/svg"
   xmlns="http://www.w3.org/2000/svg"
   xmlns:sodipodi="http://sodipodi.sourceforge.net/DTD/sodipodi-0.dtd"
   xmlns:inkscape="http://www.inkscape.org/namespaces/inkscape"
   id="svg2"
   version="1.1"
   inkscape:version="0.48.3.1 r9886"
   width="1133.75"
   height="715"
   xml:space="preserve"
   sodipodi:docname="pareto.svg"><metadata
     id="metadata8"><rdf:RDF><cc:Work
         rdf:about=""><dc:format>image/svg+xml</dc:format><dc:type
           rdf:resource="http://purl.org/dc/dcmitype/StillImage" /><dc:title /></cc:Work></rdf:RDF></metadata><defs
     id="defs6" /><sodipodi:namedview
     pagecolor="#ffffff"
     bordercolor="#666666"
     borderopacity="1"
     objecttolerance="10"
     gridtolerance="10"
     guidetolerance="10"
     inkscape:pageopacity="0"
     inkscape:pageshadow="2"
     inkscape:window-width="1600"
     inkscape:window-height="876"
     id="namedview4"
     showgrid="false"
     inkscape:zoom="0.77337368"
     inkscape:cx="383.23533"
     inkscape:cy="358.86639"
     inkscape:window-x="0"
     inkscape:window-y="24"
     inkscape:window-maximized="1"
     inkscape:current-layer="g12" /><g
     id="g10"
     inkscape:groupmode="layer"
     inkscape:label="pareto"
     transform="matrix(1.25,0,0,-1.25,0,715)"><g
       id="g12"
       transform="scale(0.1,0.1)"><path
         d="m 590,460 8419.28,0 0,5949.6 -8419.28,0 0,-5949.6 z"
         style="fill:#ffffff;fill-opacity:1;fill-rule:nonzero;stroke:none"
         id="path14" /><path
         d="m 757.777,549.84 0,5064.3"
         style="fill:none;stroke:#dcdcdc;stroke-opacity:1;stroke-width:8.9244;stroke-linecap:butt;stroke-linejoin:miter;stroke-miterlimit:10;stroke-dasharray:8.9244,26.7732;stroke-dashoffset:0"
         id="path16" /><path
         d="m 2377.86,549.84 0,5064.3"
         style="fill:none;stroke:#dcdcdc;stroke-opacity:1;stroke-width:8.9244;stroke-linecap:butt;stroke-linejoin:miter;stroke-miterlimit:10;stroke-dasharray:8.9244,26.7732;stroke-dashoffset:0"
         id="path18" /><path
         d="m 3997.93,549.84 0,5064.3"
         style="fill:none;stroke:#dcdcdc;stroke-opacity:1;stroke-width:8.9244;stroke-linecap:butt;stroke-linejoin:miter;stroke-miterlimit:10;stroke-dasharray:8.9244,26.7732;stroke-dashoffset:0"
         id="path20" /><path
         d="m 5618.01,549.84 0,5064.3"
         style="fill:none;stroke:#dcdcdc;stroke-opacity:1;stroke-width:8.9244;stroke-linecap:butt;stroke-linejoin:miter;stroke-miterlimit:10;stroke-dasharray:8.9244,26.7732;stroke-dashoffset:0"
         id="path22" /><path
         d="m 7238.08,549.84 0,5064.3"
         style="fill:none;stroke:#dcdcdc;stroke-opacity:1;stroke-width:8.9244;stroke-linecap:butt;stroke-linejoin:miter;stroke-miterlimit:10;stroke-dasharray:8.9244,26.7732;stroke-dashoffset:0"
         id="path24" /><path
         d="m 8858.16,549.84 0,5064.3"
         style="fill:none;stroke:#dcdcdc;stroke-opacity:1;stroke-width:8.9244;stroke-linecap:butt;stroke-linejoin:miter;stroke-miterlimit:10;stroke-dasharray:8.9244,26.7732;stroke-dashoffset:0"
         id="path26" /><path
         d="m 757.777,549.84 8100.383,0"
         style="fill:none;stroke:#dcdcdc;stroke-opacity:1;stroke-width:8.9244;stroke-linecap:butt;stroke-linejoin:miter;stroke-miterlimit:10;stroke-dasharray:8.9244,26.7732;stroke-dashoffset:0"
         id="path28" /><path
         d="m 757.777,1815.91 8100.383,0"
         style="fill:none;stroke:#dcdcdc;stroke-opacity:1;stroke-width:8.9244;stroke-linecap:butt;stroke-linejoin:miter;stroke-miterlimit:10;stroke-dasharray:8.9244,26.7732;stroke-dashoffset:0"
         id="path30" /><path
         d="m 757.777,3081.99 8100.383,0"
         style="fill:none;stroke:#dcdcdc;stroke-opacity:1;stroke-width:8.9244;stroke-linecap:butt;stroke-linejoin:miter;stroke-miterlimit:10;stroke-dasharray:8.9244,26.7732;stroke-dashoffset:0"
         id="path32" /><path
         d="m 757.777,4348.06 8100.383,0"
         style="fill:none;stroke:#dcdcdc;stroke-opacity:1;stroke-width:8.9244;stroke-linecap:butt;stroke-linejoin:miter;stroke-miterlimit:10;stroke-dasharray:8.9244,26.7732;stroke-dashoffset:0"
         id="path34" /><path
         d="m 757.777,5614.14 8100.383,0"
         style="fill:none;stroke:#dcdcdc;stroke-opacity:1;stroke-width:8.9244;stroke-linecap:butt;stroke-linejoin:miter;stroke-miterlimit:10;stroke-dasharray:8.9244,26.7732;stroke-dashoffset:0"
         id="path36" /><path
         d="m 3128.7,4775.25 c 0,29.57 -23.98,53.54 -53.55,53.54 -29.57,0 -53.55,-23.97 -53.55,-53.54 0,-29.57 23.98,-53.55 53.55,-53.55 29.57,0 53.55,23.98 53.55,53.55"
         style="fill:none;stroke:#000000;stroke-opacity:1;stroke-width:8.9244;stroke-linecap:butt;stroke-linejoin:miter;stroke-miterlimit:10;stroke-dasharray:none"
         id="path38" /><path
         d="m 5588.26,3039.75 c 0,29.57 -23.98,53.54 -53.55,53.54 -29.57,0 -53.54,-23.97 -53.54,-53.54 0,-29.57 23.97,-53.55 53.54,-53.55 29.57,0 53.55,23.98 53.55,53.55"
         style="fill:none;stroke:#000000;stroke-opacity:1;stroke-width:8.9244;stroke-linecap:butt;stroke-linejoin:miter;stroke-miterlimit:10;stroke-dasharray:none"
         id="path40" /><path
         d="m 7706.91,1369.1 c 0,29.57 -23.98,53.54 -53.55,53.54 -29.57,0 -53.54,-23.97 -53.54,-53.54 0,-29.57 23.97,-53.55 53.54,-53.55 29.57,0 53.55,23.98 53.55,53.55"
         style="fill:none;stroke:#000000;stroke-opacity:1;stroke-width:8.9244;stroke-linecap:butt;stroke-linejoin:miter;stroke-miterlimit:10;stroke-dasharray:none"
         id="path42" /><path
         d="m 3671.89,4315.94 c 0,29.57 -23.97,53.54 -53.54,53.54 -29.57,0 -53.55,-23.97 -53.55,-53.54 0,-29.57 23.98,-53.55 53.55,-53.55 29.57,0 53.54,23.98 53.54,53.55"
         style="fill:none;stroke:#000000;stroke-opacity:1;stroke-width:8.9244;stroke-linecap:butt;stroke-linejoin:miter;stroke-miterlimit:10;stroke-dasharray:none"
         id="path44" /><path
         d="m 8497.02,800.914 c 0,29.57 -23.98,53.543 -53.55,53.543 -29.57,0 -53.54,-23.973 -53.54,-53.543 0,-29.57 23.97,-53.547 53.54,-53.547 29.57,0 53.55,23.977 53.55,53.547"
         style="fill:none;stroke:#000000;stroke-opacity:1;stroke-width:8.9244;stroke-linecap:butt;stroke-linejoin:miter;stroke-miterlimit:10;stroke-dasharray:none"
         id="path46" /><path
         d="m 7373.14,1610.65 c 0,29.57 -23.98,53.55 -53.55,53.55 -29.57,0 -53.54,-23.98 -53.54,-53.55 0,-29.57 23.97,-53.54 53.54,-53.54 29.57,0 53.55,23.97 53.55,53.54"
         style="fill:none;stroke:#000000;stroke-opacity:1;stroke-width:8.9244;stroke-linecap:butt;stroke-linejoin:miter;stroke-miterlimit:10;stroke-dasharray:none"
         id="path48" /><path
         d="m 2982.93,4804.99 c 0,29.57 -23.98,53.55 -53.55,53.55 -29.57,0 -53.54,-23.98 -53.54,-53.55 0,-29.57 23.97,-53.54 53.54,-53.54 29.57,0 53.55,23.97 53.55,53.54"
         style="fill:none;stroke:#000000;stroke-opacity:1;stroke-width:8.9244;stroke-linecap:butt;stroke-linejoin:miter;stroke-miterlimit:10;stroke-dasharray:none"
         id="path50" /><path
         d="m 4238.29,3897.68 c 0,29.57 -23.97,53.55 -53.54,53.55 -29.57,0 -53.55,-23.98 -53.55,-53.55 0,-29.57 23.98,-53.55 53.55,-53.55 29.57,0 53.54,23.98 53.54,53.55"
         style="fill:none;stroke:#000000;stroke-opacity:1;stroke-width:8.9244;stroke-linecap:butt;stroke-linejoin:miter;stroke-miterlimit:10;stroke-dasharray:none"
         id="path52" /><path
         d="m 5622.17,2871.97 c 0,29.57 -23.97,53.55 -53.55,53.55 -29.57,0 -53.54,-23.98 -53.54,-53.55 0,-29.57 23.97,-53.55 53.54,-53.55 29.58,0 53.55,23.98 53.55,53.55"
         style="fill:none;stroke:#000000;stroke-opacity:1;stroke-width:8.9244;stroke-linecap:butt;stroke-linejoin:miter;stroke-miterlimit:10;stroke-dasharray:none"
         id="path54" /><path
         d="m 7683.11,1520.22 c 0,29.57 -23.97,53.55 -53.54,53.55 -29.57,0 -53.55,-23.98 -53.55,-53.55 0,-29.57 23.98,-53.55 53.55,-53.55 29.57,0 53.54,23.98 53.54,53.55"
         style="fill:none;stroke:#000000;stroke-opacity:1;stroke-width:8.9244;stroke-linecap:butt;stroke-linejoin:miter;stroke-miterlimit:10;stroke-dasharray:none"
         id="path56" /><path
         d="m 2102.98,5441.6 c 0,29.57 -23.97,53.55 -53.54,53.55 -29.57,0 -53.55,-23.98 -53.55,-53.55 0,-29.57 23.98,-53.55 53.55,-53.55 29.57,0 53.54,23.98 53.54,53.55"
         style="fill:none;stroke:#000000;stroke-opacity:1;stroke-width:8.9244;stroke-linecap:butt;stroke-linejoin:miter;stroke-miterlimit:10;stroke-dasharray:none"
         id="path58" /><path
         d="m 6527.7,2232.39 c 0,29.57 -23.97,53.54 -53.54,53.54 -29.57,0 -53.55,-23.97 -53.55,-53.54 0,-29.57 23.98,-53.55 53.55,-53.55 29.57,0 53.54,23.98 53.54,53.55"
         style="fill:none;stroke:#000000;stroke-opacity:1;stroke-width:8.9244;stroke-linecap:butt;stroke-linejoin:miter;stroke-miterlimit:10;stroke-dasharray:none"
         id="path60" /><path
         d="m 8090.66,1175.14 c 0,29.57 -23.98,53.55 -53.55,53.55 -29.57,0 -53.54,-23.98 -53.54,-53.55 0,-29.57 23.97,-53.55 53.54,-53.55 29.57,0 53.55,23.98 53.55,53.55"
         style="fill:none;stroke:#000000;stroke-opacity:1;stroke-width:8.9244;stroke-linecap:butt;stroke-linejoin:miter;stroke-miterlimit:10;stroke-dasharray:none"
         id="path62" /><path
         d="m 6198.09,2425.75 c 0,29.57 -23.97,53.54 -53.54,53.54 -29.57,0 -53.55,-23.97 -53.55,-53.54 0,-29.57 23.98,-53.55 53.55,-53.55 29.57,0 53.54,23.98 53.54,53.55"
         style="fill:none;stroke:#000000;stroke-opacity:1;stroke-width:8.9244;stroke-linecap:butt;stroke-linejoin:miter;stroke-miterlimit:10;stroke-dasharray:none"
         id="path64" /><path
         d="m 2809.8,5028.7 c 0,29.57 -23.98,53.55 -53.55,53.55 -29.57,0 -53.55,-23.98 -53.55,-53.55 0,-29.57 23.98,-53.55 53.55,-53.55 29.57,0 53.55,23.98 53.55,53.55"
         style="fill:none;stroke:#000000;stroke-opacity:1;stroke-width:8.9244;stroke-linecap:butt;stroke-linejoin:miter;stroke-miterlimit:10;stroke-dasharray:none"
         id="path66" /><path
         d="m 8893.86,727.137 c 0,29.57 -23.98,53.547 -53.55,53.547 -29.57,0 -53.54,-23.977 -53.54,-53.547 0,-29.571 23.97,-53.547 53.54,-53.547 29.57,0 53.55,23.976 53.55,53.547"
         style="fill:none;stroke:#000000;stroke-opacity:1;stroke-width:8.9244;stroke-linecap:butt;stroke-linejoin:miter;stroke-miterlimit:10;stroke-dasharray:none"
         id="path68" /><path
         d="m 2109.53,5272.04 c 0,29.57 -23.98,53.54 -53.55,53.54 -29.57,0 -53.55,-23.97 -53.55,-53.54 0,-29.58 23.98,-53.55 53.55,-53.55 29.57,0 53.55,23.97 53.55,53.55"
         style="fill:none;stroke:#000000;stroke-opacity:1;stroke-width:8.9244;stroke-linecap:butt;stroke-linejoin:miter;stroke-miterlimit:10;stroke-dasharray:none"
         id="path70" /><path
         d="m 1863.81,5580.82 c 0,29.57 -23.98,53.55 -53.55,53.55 -29.57,0 -53.55,-23.98 -53.55,-53.55 0,-29.57 23.98,-53.55 53.55,-53.55 29.57,0 53.55,23.98 53.55,53.55"
         style="fill:none;stroke:#000000;stroke-opacity:1;stroke-width:8.9244;stroke-linecap:butt;stroke-linejoin:miter;stroke-miterlimit:10;stroke-dasharray:none"
         id="path72" /><path
         d="m 4503.05,3720.98 c 0,29.57 -23.97,53.54 -53.54,53.54 -29.57,0 -53.55,-23.97 -53.55,-53.54 0,-29.57 23.98,-53.55 53.55,-53.55 29.57,0 53.54,23.98 53.54,53.55"
         style="fill:none;stroke:#000000;stroke-opacity:1;stroke-width:8.9244;stroke-linecap:butt;stroke-linejoin:miter;stroke-miterlimit:10;stroke-dasharray:none"
         id="path74" /><path
         d="m 3591.57,4436.12 c 0,29.57 -23.97,53.54 -53.54,53.54 -29.57,0 -53.55,-23.97 -53.55,-53.54 0,-29.57 23.98,-53.55 53.55,-53.55 29.57,0 53.54,23.98 53.54,53.55"
         style="fill:none;stroke:#000000;stroke-opacity:1;stroke-width:8.9244;stroke-linecap:butt;stroke-linejoin:miter;stroke-miterlimit:10;stroke-dasharray:none"
         id="path76" /><path
         d="m 6674.66,2149.69 c 0,29.57 -23.98,53.54 -53.55,53.54 -29.57,0 -53.55,-23.97 -53.55,-53.54 0,-29.57 23.98,-53.55 53.55,-53.55 29.57,0 53.55,23.98 53.55,53.55"
         style="fill:none;stroke:#000000;stroke-opacity:1;stroke-width:8.9244;stroke-linecap:butt;stroke-linejoin:miter;stroke-miterlimit:10;stroke-dasharray:none"
         id="path78" /><path
         d="m 5985.1,2557.83 c 0,29.57 -23.98,53.55 -53.55,53.55 -29.57,0 -53.55,-23.98 -53.55,-53.55 0,-29.57 23.98,-53.55 53.55,-53.55 29.57,0 53.55,23.98 53.55,53.55"
         style="fill:none;stroke:#000000;stroke-opacity:1;stroke-width:8.9244;stroke-linecap:butt;stroke-linejoin:miter;stroke-miterlimit:10;stroke-dasharray:none"
         id="path80" /><path
         d="m 3264.94,4566.41 c 0,29.57 -23.98,53.55 -53.55,53.55 -29.57,0 -53.54,-23.98 -53.54,-53.55 0,-29.57 23.97,-53.54 53.54,-53.54 29.57,0 53.55,23.97 53.55,53.54"
         style="fill:none;stroke:#000000;stroke-opacity:1;stroke-width:8.9244;stroke-linecap:butt;stroke-linejoin:miter;stroke-miterlimit:10;stroke-dasharray:none"
         id="path82" /><path
         d="m 2452.23,5264.9 c 0,29.57 -23.98,53.55 -53.55,53.55 -29.57,0 -53.55,-23.98 -53.55,-53.55 0,-29.57 23.98,-53.55 53.55,-53.55 29.57,0 53.55,23.98 53.55,53.55"
         style="fill:none;stroke:#000000;stroke-opacity:1;stroke-width:8.9244;stroke-linecap:butt;stroke-linejoin:miter;stroke-miterlimit:10;stroke-dasharray:none"
         id="path84" /><path
         d="m 8405.39,965.715 c 0,29.57 -23.97,53.545 -53.54,53.545 -29.57,0 -53.55,-23.975 -53.55,-53.545 0,-29.57 23.98,-53.547 53.55,-53.547 29.57,0 53.54,23.977 53.54,53.547"
         style="fill:none;stroke:#000000;stroke-opacity:1;stroke-width:8.9244;stroke-linecap:butt;stroke-linejoin:miter;stroke-miterlimit:10;stroke-dasharray:none"
         id="path86" /><path
         d="m 3823.61,4217.17 c 0,29.57 -23.98,53.55 -53.55,53.55 -29.57,0 -53.54,-23.98 -53.54,-53.55 0,-29.57 23.97,-53.55 53.54,-53.55 29.57,0 53.55,23.98 53.55,53.55"
         style="fill:none;stroke:#000000;stroke-opacity:1;stroke-width:8.9244;stroke-linecap:butt;stroke-linejoin:miter;stroke-miterlimit:10;stroke-dasharray:none"
         id="path88" /><path
         d="m 3835.51,4122.57 c 0,29.57 -23.98,53.55 -53.55,53.55 -29.57,0 -53.55,-23.98 -53.55,-53.55 0,-29.57 23.98,-53.54 53.55,-53.54 29.57,0 53.55,23.97 53.55,53.54"
         style="fill:none;stroke:#000000;stroke-opacity:1;stroke-width:8.9244;stroke-linecap:butt;stroke-linejoin:miter;stroke-miterlimit:10;stroke-dasharray:none"
         id="path90" /><path
         d="m 5183.69,3246.79 c 0,29.57 -23.98,53.55 -53.55,53.55 -29.57,0 -53.55,-23.98 -53.55,-53.55 0,-29.57 23.98,-53.54 53.55,-53.54 29.57,0 53.55,23.97 53.55,53.54"
         style="fill:none;stroke:#000000;stroke-opacity:1;stroke-width:8.9244;stroke-linecap:butt;stroke-linejoin:miter;stroke-miterlimit:10;stroke-dasharray:none"
         id="path92" /><path
         d="m 2179.14,5272.04 c 0,29.57 -23.98,53.54 -53.55,53.54 -29.57,0 -53.54,-23.97 -53.54,-53.54 0,-29.58 23.97,-53.55 53.54,-53.55 29.57,0 53.55,23.97 53.55,53.55"
         style="fill:none;stroke:#000000;stroke-opacity:1;stroke-width:8.9244;stroke-linecap:butt;stroke-linejoin:miter;stroke-miterlimit:10;stroke-dasharray:none"
         id="path94" /><path
         d="m 4586.94,3596.63 c 0,29.57 -23.98,53.55 -53.55,53.55 -29.57,0 -53.54,-23.98 -53.54,-53.55 0,-29.57 23.97,-53.55 53.54,-53.55 29.57,0 53.55,23.98 53.55,53.55"
         style="fill:none;stroke:#000000;stroke-opacity:1;stroke-width:8.9244;stroke-linecap:butt;stroke-linejoin:miter;stroke-miterlimit:10;stroke-dasharray:none"
         id="path96" /><path
         d="m 4900.48,3531.18 c 0,29.57 -23.97,53.55 -53.54,53.55 -29.57,0 -53.55,-23.98 -53.55,-53.55 0,-29.57 23.98,-53.54 53.55,-53.54 29.57,0 53.54,23.97 53.54,53.54"
         style="fill:none;stroke:#000000;stroke-opacity:1;stroke-width:8.9244;stroke-linecap:butt;stroke-linejoin:miter;stroke-miterlimit:10;stroke-dasharray:none"
         id="path98" /><path
         d="m 3692.12,4274.88 c 0,29.57 -23.98,53.55 -53.55,53.55 -29.57,0 -53.54,-23.98 -53.54,-53.55 0,-29.57 23.97,-53.54 53.54,-53.54 29.57,0 53.55,23.97 53.55,53.54"
         style="fill:none;stroke:#000000;stroke-opacity:1;stroke-width:8.9244;stroke-linecap:butt;stroke-linejoin:miter;stroke-miterlimit:10;stroke-dasharray:none"
         id="path100" /><path
         d="m 6707.97,2130.65 c 0,29.57 -23.97,53.55 -53.54,53.55 -29.57,0 -53.55,-23.98 -53.55,-53.55 0,-29.57 23.98,-53.55 53.55,-53.55 29.57,0 53.54,23.98 53.54,53.55"
         style="fill:none;stroke:#000000;stroke-opacity:1;stroke-width:8.9244;stroke-linecap:butt;stroke-linejoin:miter;stroke-miterlimit:10;stroke-dasharray:none"
         id="path102" /><path
         d="m 4309.09,3762.62 c 0,29.58 -23.97,53.55 -53.54,53.55 -29.57,0 -53.55,-23.97 -53.55,-53.55 0,-29.57 23.98,-53.54 53.55,-53.54 29.57,0 53.54,23.97 53.54,53.54"
         style="fill:none;stroke:#000000;stroke-opacity:1;stroke-width:8.9244;stroke-linecap:butt;stroke-linejoin:miter;stroke-miterlimit:10;stroke-dasharray:none"
         id="path104" /><path
         d="m 4055.64,4025.59 c 0,29.57 -23.98,53.55 -53.55,53.55 -29.57,0 -53.54,-23.98 -53.54,-53.55 0,-29.57 23.97,-53.54 53.54,-53.54 29.57,0 53.55,23.97 53.55,53.54"
         style="fill:none;stroke:#000000;stroke-opacity:1;stroke-width:8.9244;stroke-linecap:butt;stroke-linejoin:miter;stroke-miterlimit:10;stroke-dasharray:none"
         id="path106" /><path
         d="m 7343.39,1795.68 c 0,29.57 -23.98,53.55 -53.55,53.55 -29.57,0 -53.54,-23.98 -53.54,-53.55 0,-29.57 23.97,-53.54 53.54,-53.54 29.57,0 53.55,23.97 53.55,53.54"
         style="fill:none;stroke:#000000;stroke-opacity:1;stroke-width:8.9244;stroke-linecap:butt;stroke-linejoin:miter;stroke-miterlimit:10;stroke-dasharray:none"
         id="path108" /><path
         d="m 6663.35,2159.8 c 0,29.57 -23.97,53.55 -53.55,53.55 -29.57,0 -53.54,-23.98 -53.54,-53.55 0,-29.57 23.97,-53.55 53.54,-53.55 29.58,0 53.55,23.98 53.55,53.55"
         style="fill:none;stroke:#000000;stroke-opacity:1;stroke-width:8.9244;stroke-linecap:butt;stroke-linejoin:miter;stroke-miterlimit:10;stroke-dasharray:none"
         id="path110" /><path
         d="m 5127.16,3292.01 c 0,29.57 -23.97,53.54 -53.54,53.54 -29.57,0 -53.55,-23.97 -53.55,-53.54 0,-29.57 23.98,-53.55 53.55,-53.55 29.57,0 53.54,23.98 53.54,53.55"
         style="fill:none;stroke:#000000;stroke-opacity:1;stroke-width:8.9244;stroke-linecap:butt;stroke-linejoin:miter;stroke-miterlimit:10;stroke-dasharray:none"
         id="path112" /><path
         d="m 5259.25,3143.86 c 0,29.57 -23.98,53.55 -53.55,53.55 -29.57,0 -53.55,-23.98 -53.55,-53.55 0,-29.57 23.98,-53.54 53.55,-53.54 29.57,0 53.55,23.97 53.55,53.54"
         style="fill:none;stroke:#000000;stroke-opacity:1;stroke-width:8.9244;stroke-linecap:butt;stroke-linejoin:miter;stroke-miterlimit:10;stroke-dasharray:none"
         id="path114" /><path
         d="m 4983.78,3350.91 c 0,29.57 -23.98,53.55 -53.55,53.55 -29.57,0 -53.54,-23.98 -53.54,-53.55 0,-29.57 23.97,-53.55 53.54,-53.55 29.57,0 53.55,23.98 53.55,53.55"
         style="fill:none;stroke:#000000;stroke-opacity:1;stroke-width:8.9244;stroke-linecap:butt;stroke-linejoin:miter;stroke-miterlimit:10;stroke-dasharray:none"
         id="path116" /><path
         d="m 4057.43,4015.48 c 0,29.57 -23.98,53.55 -53.55,53.55 -29.57,0 -53.54,-23.98 -53.54,-53.55 0,-29.57 23.97,-53.55 53.54,-53.55 29.57,0 53.55,23.98 53.55,53.55"
         style="fill:none;stroke:#000000;stroke-opacity:1;stroke-width:8.9244;stroke-linecap:butt;stroke-linejoin:miter;stroke-miterlimit:10;stroke-dasharray:none"
         id="path118" /><path
         d="m 3526.13,4475.39 c 0,29.57 -23.98,53.54 -53.55,53.54 -29.57,0 -53.54,-23.97 -53.54,-53.54 0,-29.57 23.97,-53.55 53.54,-53.55 29.57,0 53.55,23.98 53.55,53.55"
         style="fill:none;stroke:#000000;stroke-opacity:1;stroke-width:8.9244;stroke-linecap:butt;stroke-linejoin:miter;stroke-miterlimit:10;stroke-dasharray:none"
         id="path120" /><path
         d="m 5774.48,2781.54 c 0,29.57 -23.98,53.54 -53.55,53.54 -29.57,0 -53.54,-23.97 -53.54,-53.54 0,-29.58 23.97,-53.55 53.54,-53.55 29.57,0 53.55,23.97 53.55,53.55"
         style="fill:none;stroke:#000000;stroke-opacity:1;stroke-width:8.9244;stroke-linecap:butt;stroke-linejoin:miter;stroke-miterlimit:10;stroke-dasharray:none"
         id="path122" /><path
         d="m 5938.1,2633.98 c 0,29.57 -23.98,53.55 -53.55,53.55 -29.57,0 -53.55,-23.98 -53.55,-53.55 0,-29.57 23.98,-53.54 53.55,-53.54 29.57,0 53.55,23.97 53.55,53.54"
         style="fill:none;stroke:#000000;stroke-opacity:1;stroke-width:8.9244;stroke-linecap:butt;stroke-linejoin:miter;stroke-miterlimit:10;stroke-dasharray:none"
         id="path124" /><path
         d="m 3222.7,4662.8 c 0,29.57 -23.98,53.54 -53.55,53.54 -29.57,0 -53.54,-23.97 -53.54,-53.54 0,-29.57 23.97,-53.55 53.54,-53.55 29.57,0 53.55,23.98 53.55,53.55"
         style="fill:none;stroke:#000000;stroke-opacity:1;stroke-width:8.9244;stroke-linecap:butt;stroke-linejoin:miter;stroke-miterlimit:10;stroke-dasharray:none"
         id="path126" /><path
         d="m 7702.75,1444.66 c 0,29.57 -23.98,53.55 -53.55,53.55 -29.57,0 -53.55,-23.98 -53.55,-53.55 0,-29.57 23.98,-53.55 53.55,-53.55 29.57,0 53.55,23.98 53.55,53.55"
         style="fill:none;stroke:#000000;stroke-opacity:1;stroke-width:8.9244;stroke-linecap:butt;stroke-linejoin:miter;stroke-miterlimit:10;stroke-dasharray:none"
         id="path128" /><path
         d="m 2473.64,5145.91 c 0,29.57 -23.97,53.54 -53.54,53.54 -29.57,0 -53.55,-23.97 -53.55,-53.54 0,-29.57 23.98,-53.55 53.55,-53.55 29.57,0 53.54,23.98 53.54,53.55"
         style="fill:none;stroke:#000000;stroke-opacity:1;stroke-width:8.9244;stroke-linecap:butt;stroke-linejoin:miter;stroke-miterlimit:10;stroke-dasharray:none"
         id="path130" /><path
         d="m 8118.03,1066.27 c 0,29.57 -23.98,53.54 -53.55,53.54 -29.57,0 -53.54,-23.97 -53.54,-53.54 0,-29.57 23.97,-53.55 53.54,-53.55 29.57,0 53.55,23.98 53.55,53.55"
         style="fill:none;stroke:#000000;stroke-opacity:1;stroke-width:8.9244;stroke-linecap:butt;stroke-linejoin:miter;stroke-miterlimit:10;stroke-dasharray:none"
         id="path132" /><path
         d="m 8031.16,1298.89 c 0,29.57 -23.97,53.55 -53.54,53.55 -29.57,0 -53.55,-23.98 -53.55,-53.55 0,-29.57 23.98,-53.54 53.55,-53.54 29.57,0 53.54,23.97 53.54,53.54"
         style="fill:none;stroke:#000000;stroke-opacity:1;stroke-width:8.9244;stroke-linecap:butt;stroke-linejoin:miter;stroke-miterlimit:10;stroke-dasharray:none"
         id="path134" /><path
         d="m 2865.72,4985.86 c 0,29.57 -23.97,53.55 -53.54,53.55 -29.57,0 -53.55,-23.98 -53.55,-53.55 0,-29.57 23.98,-53.54 53.55,-53.54 29.57,0 53.54,23.97 53.54,53.54"
         style="fill:none;stroke:#000000;stroke-opacity:1;stroke-width:8.9244;stroke-linecap:butt;stroke-linejoin:miter;stroke-miterlimit:10;stroke-dasharray:none"
         id="path136" /><path
         d="m 5913.11,2781.54 c 0,29.57 -23.98,53.54 -53.55,53.54 -29.57,0 -53.54,-23.97 -53.54,-53.54 0,-29.58 23.97,-53.55 53.54,-53.55 29.57,0 53.55,23.97 53.55,53.55"
         style="fill:none;stroke:#000000;stroke-opacity:1;stroke-width:8.9244;stroke-linecap:butt;stroke-linejoin:miter;stroke-miterlimit:10;stroke-dasharray:none"
         id="path138" /><path
         d="m 6318.87,2333.53 c 0,29.57 -23.98,53.54 -53.55,53.54 -29.57,0 -53.54,-23.97 -53.54,-53.54 0,-29.57 23.97,-53.55 53.54,-53.55 29.57,0 53.55,23.98 53.55,53.55"
         style="fill:none;stroke:#000000;stroke-opacity:1;stroke-width:8.9244;stroke-linecap:butt;stroke-linejoin:miter;stroke-miterlimit:10;stroke-dasharray:none"
         id="path140" /><path
         d="m 6425.37,2268.68 c 0,29.57 -23.98,53.55 -53.55,53.55 -29.57,0 -53.54,-23.98 -53.54,-53.55 0,-29.57 23.97,-53.55 53.54,-53.55 29.57,0 53.55,23.98 53.55,53.55"
         style="fill:none;stroke:#000000;stroke-opacity:1;stroke-width:8.9244;stroke-linecap:butt;stroke-linejoin:miter;stroke-miterlimit:10;stroke-dasharray:none"
         id="path142" /><path
         d="m 4308.5,3800.11 c 0,29.57 -23.98,53.54 -53.55,53.54 -29.57,0 -53.54,-23.97 -53.54,-53.54 0,-29.57 23.97,-53.55 53.54,-53.55 29.57,0 53.55,23.98 53.55,53.55"
         style="fill:none;stroke:#000000;stroke-opacity:1;stroke-width:8.9244;stroke-linecap:butt;stroke-linejoin:miter;stroke-miterlimit:10;stroke-dasharray:none"
         id="path144" /><path
         d="m 1904.27,5475.51 c 0,29.57 -23.98,53.55 -53.55,53.55 -29.57,0 -53.54,-23.98 -53.54,-53.55 0,-29.57 23.97,-53.55 53.54,-53.55 29.57,0 53.55,23.98 53.55,53.55"
         style="fill:none;stroke:#000000;stroke-opacity:1;stroke-width:8.9244;stroke-linecap:butt;stroke-linejoin:miter;stroke-miterlimit:10;stroke-dasharray:none"
         id="path146" /><path
         d="m 5266.98,3109.95 c 0,29.57 -23.98,53.55 -53.55,53.55 -29.57,0 -53.54,-23.98 -53.54,-53.55 0,-29.57 23.97,-53.54 53.54,-53.54 29.57,0 53.55,23.97 53.55,53.54"
         style="fill:none;stroke:#000000;stroke-opacity:1;stroke-width:8.9244;stroke-linecap:butt;stroke-linejoin:miter;stroke-miterlimit:10;stroke-dasharray:none"
         id="path148" /><path
         d="m 6247.48,2413.85 c 0,29.57 -23.98,53.54 -53.55,53.54 -29.57,0 -53.55,-23.97 -53.55,-53.54 0,-29.57 23.98,-53.55 53.55,-53.55 29.57,0 53.55,23.98 53.55,53.55"
         style="fill:none;stroke:#000000;stroke-opacity:1;stroke-width:8.9244;stroke-linecap:butt;stroke-linejoin:miter;stroke-miterlimit:10;stroke-dasharray:none"
         id="path150" /><path
         d="m 6296.26,2413.85 c 0,29.57 -23.97,53.54 -53.55,53.54 -29.57,0 -53.54,-23.97 -53.54,-53.54 0,-29.57 23.97,-53.55 53.54,-53.55 29.58,0 53.55,23.98 53.55,53.55"
         style="fill:none;stroke:#000000;stroke-opacity:1;stroke-width:8.9244;stroke-linecap:butt;stroke-linejoin:miter;stroke-miterlimit:10;stroke-dasharray:none"
         id="path152" /><path
         d="m 6945.36,1996.78 c 0,29.57 -23.97,53.55 -53.54,53.55 -29.57,0 -53.55,-23.98 -53.55,-53.55 0,-29.57 23.98,-53.55 53.55,-53.55 29.57,0 53.54,23.98 53.54,53.55"
         style="fill:none;stroke:#000000;stroke-opacity:1;stroke-width:8.9244;stroke-linecap:butt;stroke-linejoin:miter;stroke-miterlimit:10;stroke-dasharray:none"
         id="path154" /><path
         d="m 3958.66,4063.08 c 0,29.57 -23.97,53.54 -53.54,53.54 -29.57,0 -53.55,-23.97 -53.55,-53.54 0,-29.57 23.98,-53.55 53.55,-53.55 29.57,0 53.54,23.98 53.54,53.55"
         style="fill:none;stroke:#000000;stroke-opacity:1;stroke-width:8.9244;stroke-linecap:butt;stroke-linejoin:miter;stroke-miterlimit:10;stroke-dasharray:none"
         id="path156" /><path
         d="m 2722.93,5034.05 c 0,29.57 -23.97,53.55 -53.54,53.55 -29.57,0 -53.55,-23.98 -53.55,-53.55 0,-29.57 23.98,-53.54 53.55,-53.54 29.57,0 53.54,23.97 53.54,53.54"
         style="fill:none;stroke:#000000;stroke-opacity:1;stroke-width:8.9244;stroke-linecap:butt;stroke-linejoin:miter;stroke-miterlimit:10;stroke-dasharray:none"
         id="path158" /><path
         d="m 2489.11,5145.91 c 0,29.57 -23.97,53.54 -53.54,53.54 -29.57,0 -53.55,-23.97 -53.55,-53.54 0,-29.57 23.98,-53.55 53.55,-53.55 29.57,0 53.54,23.98 53.54,53.55"
         style="fill:none;stroke:#000000;stroke-opacity:1;stroke-width:8.9244;stroke-linecap:butt;stroke-linejoin:miter;stroke-miterlimit:10;stroke-dasharray:none"
         id="path160" /><path
         d="m 3942,4088.07 c 0,29.57 -23.97,53.54 -53.54,53.54 -29.57,0 -53.55,-23.97 -53.55,-53.54 0,-29.57 23.98,-53.55 53.55,-53.55 29.57,0 53.54,23.98 53.54,53.55"
         style="fill:none;stroke:#000000;stroke-opacity:1;stroke-width:8.9244;stroke-linecap:butt;stroke-linejoin:miter;stroke-miterlimit:10;stroke-dasharray:none"
         id="path162" /><path
         d="m 6837.68,2027.12 c 0,29.58 -23.98,53.55 -53.55,53.55 -29.57,0 -53.55,-23.97 -53.55,-53.55 0,-29.57 23.98,-53.54 53.55,-53.54 29.57,0 53.55,23.97 53.55,53.54"
         style="fill:none;stroke:#000000;stroke-opacity:1;stroke-width:8.9244;stroke-linecap:butt;stroke-linejoin:miter;stroke-miterlimit:10;stroke-dasharray:none"
         id="path164" /><path
         d="m 4553.62,3676.36 c 0,29.57 -23.97,53.54 -53.54,53.54 -29.57,0 -53.55,-23.97 -53.55,-53.54 0,-29.57 23.98,-53.55 53.55,-53.55 29.57,0 53.54,23.98 53.54,53.55"
         style="fill:none;stroke:#000000;stroke-opacity:1;stroke-width:8.9244;stroke-linecap:butt;stroke-linejoin:miter;stroke-miterlimit:10;stroke-dasharray:none"
         id="path166" /><path
         d="m 3813.49,4263.58 c 0,29.57 -23.97,53.54 -53.54,53.54 -29.57,0 -53.55,-23.97 -53.55,-53.54 0,-29.57 23.98,-53.55 53.55,-53.55 29.57,0 53.54,23.98 53.54,53.55"
         style="fill:none;stroke:#000000;stroke-opacity:1;stroke-width:8.9244;stroke-linecap:butt;stroke-linejoin:miter;stroke-miterlimit:10;stroke-dasharray:none"
         id="path168" /><path
         d="m 6167.16,2556.64 c 0,29.57 -23.98,53.55 -53.55,53.55 -29.57,0 -53.55,-23.98 -53.55,-53.55 0,-29.57 23.98,-53.55 53.55,-53.55 29.57,0 53.55,23.98 53.55,53.55"
         style="fill:none;stroke:#000000;stroke-opacity:1;stroke-width:8.9244;stroke-linecap:butt;stroke-linejoin:miter;stroke-miterlimit:10;stroke-dasharray:none"
         id="path170" /><path
         d="m 4481.63,3729.9 c 0,29.57 -23.97,53.55 -53.54,53.55 -29.57,0 -53.55,-23.98 -53.55,-53.55 0,-29.57 23.98,-53.54 53.55,-53.54 29.57,0 53.54,23.97 53.54,53.54"
         style="fill:none;stroke:#000000;stroke-opacity:1;stroke-width:8.9244;stroke-linecap:butt;stroke-linejoin:miter;stroke-miterlimit:10;stroke-dasharray:none"
         id="path172" /><path
         d="m 3166.77,4731.22 c 0,29.57 -23.97,53.55 -53.54,53.55 -29.57,0 -53.55,-23.98 -53.55,-53.55 0,-29.57 23.98,-53.55 53.55,-53.55 29.57,0 53.54,23.98 53.54,53.55"
         style="fill:none;stroke:#000000;stroke-opacity:1;stroke-width:8.9244;stroke-linecap:butt;stroke-linejoin:miter;stroke-miterlimit:10;stroke-dasharray:none"
         id="path174" /><path
         d="m 4191.29,4002.39 c 0,29.57 -23.97,53.55 -53.54,53.55 -29.57,0 -53.55,-23.98 -53.55,-53.55 0,-29.57 23.98,-53.55 53.55,-53.55 29.57,0 53.54,23.98 53.54,53.55"
         style="fill:none;stroke:#000000;stroke-opacity:1;stroke-width:8.9244;stroke-linecap:butt;stroke-linejoin:miter;stroke-miterlimit:10;stroke-dasharray:none"
         id="path176" /><path
         d="m 7123.26,1886.71 c 0,29.58 -23.98,53.55 -53.55,53.55 -29.57,0 -53.55,-23.97 -53.55,-53.55 0,-29.57 23.98,-53.54 53.55,-53.54 29.57,0 53.55,23.97 53.55,53.54"
         style="fill:none;stroke:#000000;stroke-opacity:1;stroke-width:8.9244;stroke-linecap:butt;stroke-linejoin:miter;stroke-miterlimit:10;stroke-dasharray:none"
         id="path178" /><path
         d="m 4627.4,3547.84 c 0,29.57 -23.98,53.55 -53.55,53.55 -29.57,0 -53.55,-23.98 -53.55,-53.55 0,-29.57 23.98,-53.54 53.55,-53.54 29.57,0 53.55,23.97 53.55,53.54"
         style="fill:none;stroke:#000000;stroke-opacity:1;stroke-width:8.9244;stroke-linecap:butt;stroke-linejoin:miter;stroke-miterlimit:10;stroke-dasharray:none"
         id="path180" /><path
         d="m 8482.14,965.715 c 0,29.57 -23.97,53.545 -53.54,53.545 -29.57,0 -53.55,-23.975 -53.55,-53.545 0,-29.57 23.98,-53.547 53.55,-53.547 29.57,0 53.54,23.977 53.54,53.547"
         style="fill:none;stroke:#000000;stroke-opacity:1;stroke-width:8.9244;stroke-linecap:butt;stroke-linejoin:miter;stroke-miterlimit:10;stroke-dasharray:none"
         id="path182" /><path
         d="m 3456.52,4539.05 c 0,29.57 -23.98,53.54 -53.55,53.54 -29.57,0 -53.54,-23.97 -53.54,-53.54 0,-29.57 23.97,-53.55 53.54,-53.55 29.57,0 53.55,23.98 53.55,53.55"
         style="fill:none;stroke:#000000;stroke-opacity:1;stroke-width:8.9244;stroke-linecap:butt;stroke-linejoin:miter;stroke-miterlimit:10;stroke-dasharray:none"
         id="path184" /><path
         d="m 7063.16,1910.51 c 0,29.57 -23.97,53.55 -53.54,53.55 -29.57,0 -53.55,-23.98 -53.55,-53.55 0,-29.57 23.98,-53.55 53.55,-53.55 29.57,0 53.54,23.98 53.54,53.55"
         style="fill:none;stroke:#000000;stroke-opacity:1;stroke-width:8.9244;stroke-linecap:butt;stroke-linejoin:miter;stroke-miterlimit:10;stroke-dasharray:none"
         id="path186" /><path
         d="m 757.777,549.84 8100.383,0"
         style="fill:none;stroke:#000000;stroke-opacity:1;stroke-width:8.9244;stroke-linecap:butt;stroke-linejoin:miter;stroke-miterlimit:10;stroke-dasharray:none"
         id="path188" /><path
         d="m 757.777,5614.14 8100.383,0"
         style="fill:none;stroke:#000000;stroke-opacity:1;stroke-width:8.9244;stroke-linecap:butt;stroke-linejoin:miter;stroke-miterlimit:10;stroke-dasharray:none"
         id="path190" /><path
         d="m 757.777,549.84 0,118.992"
         style="fill:none;stroke:#dcdcdc;stroke-opacity:1;stroke-width:8.9244;stroke-linecap:butt;stroke-linejoin:miter;stroke-miterlimit:10;stroke-dasharray:8.9244,26.7732;stroke-dashoffset:0"
         id="path192" /><path
         d="m 757.777,5614.14 0,-118.99"
         style="fill:none;stroke:#dcdcdc;stroke-opacity:1;stroke-width:8.9244;stroke-linecap:butt;stroke-linejoin:miter;stroke-miterlimit:10;stroke-dasharray:8.9244,26.7732;stroke-dashoffset:0"
         id="path194" /><path
         d="m 2377.86,549.84 0,118.992"
         style="fill:none;stroke:#dcdcdc;stroke-opacity:1;stroke-width:8.9244;stroke-linecap:butt;stroke-linejoin:miter;stroke-miterlimit:10;stroke-dasharray:8.9244,26.7732;stroke-dashoffset:0"
         id="path196" /><path
         d="m 2377.86,5614.14 0,-118.99"
         style="fill:none;stroke:#dcdcdc;stroke-opacity:1;stroke-width:8.9244;stroke-linecap:butt;stroke-linejoin:miter;stroke-miterlimit:10;stroke-dasharray:8.9244,26.7732;stroke-dashoffset:0"
         id="path198" /><path
         d="m 3997.93,549.84 0,118.992"
         style="fill:none;stroke:#dcdcdc;stroke-opacity:1;stroke-width:8.9244;stroke-linecap:butt;stroke-linejoin:miter;stroke-miterlimit:10;stroke-dasharray:8.9244,26.7732;stroke-dashoffset:0"
         id="path200" /><path
         d="m 3997.93,5614.14 0,-118.99"
         style="fill:none;stroke:#dcdcdc;stroke-opacity:1;stroke-width:8.9244;stroke-linecap:butt;stroke-linejoin:miter;stroke-miterlimit:10;stroke-dasharray:8.9244,26.7732;stroke-dashoffset:0"
         id="path202" /><path
         d="m 5618.01,549.84 0,118.992"
         style="fill:none;stroke:#dcdcdc;stroke-opacity:1;stroke-width:8.9244;stroke-linecap:butt;stroke-linejoin:miter;stroke-miterlimit:10;stroke-dasharray:8.9244,26.7732;stroke-dashoffset:0"
         id="path204" /><path
         d="m 5618.01,5614.14 0,-118.99"
         style="fill:none;stroke:#dcdcdc;stroke-opacity:1;stroke-width:8.9244;stroke-linecap:butt;stroke-linejoin:miter;stroke-miterlimit:10;stroke-dasharray:8.9244,26.7732;stroke-dashoffset:0"
         id="path206" /><path
         d="m 7238.08,549.84 0,118.992"
         style="fill:none;stroke:#dcdcdc;stroke-opacity:1;stroke-width:8.9244;stroke-linecap:butt;stroke-linejoin:miter;stroke-miterlimit:10;stroke-dasharray:8.9244,26.7732;stroke-dashoffset:0"
         id="path208" /><path
         d="m 7238.08,5614.14 0,-118.99"
         style="fill:none;stroke:#dcdcdc;stroke-opacity:1;stroke-width:8.9244;stroke-linecap:butt;stroke-linejoin:miter;stroke-miterlimit:10;stroke-dasharray:8.9244,26.7732;stroke-dashoffset:0"
         id="path210" /><path
         d="m 8858.16,549.84 0,118.992"
         style="fill:none;stroke:#dcdcdc;stroke-opacity:1;stroke-width:8.9244;stroke-linecap:butt;stroke-linejoin:miter;stroke-miterlimit:10;stroke-dasharray:8.9244,26.7732;stroke-dashoffset:0"
         id="path212" /><path
         d="m 8858.16,5614.14 0,-118.99"
         style="fill:none;stroke:#dcdcdc;stroke-opacity:1;stroke-width:8.9244;stroke-linecap:butt;stroke-linejoin:miter;stroke-miterlimit:10;stroke-dasharray:8.9244,26.7732;stroke-dashoffset:0"
         id="path214" /><g
         id="g216"
         transform="matrix(10,0,0,10,-20.688576,0)"><text
   transform="matrix(1,0,0,-1,69.4117,31.0664)"
   id="text218"><tspan
     style="font-size:26.6541996px;font-variant:normal;font-weight:normal;writing-mode:lr-tb;fill:#000000;fill-opacity:1;fill-rule:nonzero;stroke:none;font-family:Times New Roman;-inkscape-font-specification:Times-Roman"
     x="0 155.2847 168.6118 317.29214 330.61923"
     y="0"
     sodipodi:role="line"
     id="tspan220">02040</tspan><tspan
     style="font-size:26.6541996px;font-variant:normal;font-weight:normal;writing-mode:lr-tb;fill:#000000;fill-opacity:1;fill-rule:nonzero;stroke:none;font-family:Times New Roman;-inkscape-font-specification:Times-Roman"
     x="479.29999 492.62711"
     y="0.237891"
     sodipodi:role="line"
     id="tspan222">60</tspan><tspan
     style="font-size:26.6541996px;font-variant:normal;font-weight:normal;writing-mode:lr-tb;fill:#000000;fill-opacity:1;fill-rule:nonzero;stroke:none;font-family:Times New Roman;-inkscape-font-specification:Times-Roman"
     x="641.30701 654.63409 796.71057 810.03766 823.36481"
     y="0"
     sodipodi:role="line"
     id="tspan224">80100</tspan></text>

<text
   transform="scale(1,-1)"
   id="text226"
   style="font-size:33.59999847px;font-style:normal;font-variant:normal;font-weight:normal;font-stretch:normal;text-align:start;line-height:125%;writing-mode:lr-tb;text-anchor:start;font-family:Sans;-inkscape-font-specification:Sans"
   sodipodi:linespacing="125%"
   x="452.12628"
   y="-14.65123"><tspan
     style="font-size:33.59999847px;font-style:normal;font-variant:normal;font-weight:normal;font-stretch:normal;text-align:start;line-height:125%;writing-mode:lr-tb;text-anchor:start;fill:#000000;fill-opacity:1;fill-rule:nonzero;stroke:none;font-family:Sans;-inkscape-font-specification:Sans"
     x="452.12628 463.08115 469.74469 478.62054 500.82349"
     y="-14.65123"
     sodipodi:role="line"
     id="tspan228">γ [%]</tspan></text>

</g><path
         d="m 757.777,549.84 0,5064.3"
         style="fill:none;stroke:#000000;stroke-opacity:1;stroke-width:8.9244;stroke-linecap:butt;stroke-linejoin:miter;stroke-miterlimit:10;stroke-dasharray:none"
         id="path230" /><path
         d="m 8858.16,549.84 0,5064.3"
         style="fill:none;stroke:#000000;stroke-opacity:1;stroke-width:8.9244;stroke-linecap:butt;stroke-linejoin:miter;stroke-miterlimit:10;stroke-dasharray:none"
         id="path232" /><path
         d="m 757.777,549.84 118.993,0"
         style="fill:none;stroke:#dcdcdc;stroke-opacity:1;stroke-width:8.9244;stroke-linecap:butt;stroke-linejoin:miter;stroke-miterlimit:10;stroke-dasharray:8.9244,26.7732;stroke-dashoffset:0"
         id="path234" /><path
         d="m 8858.16,549.84 -118.99,0"
         style="fill:none;stroke:#dcdcdc;stroke-opacity:1;stroke-width:8.9244;stroke-linecap:butt;stroke-linejoin:miter;stroke-miterlimit:10;stroke-dasharray:8.9244,26.7732;stroke-dashoffset:0"
         id="path236" /><path
         d="m 757.777,1815.91 118.993,0"
         style="fill:none;stroke:#dcdcdc;stroke-opacity:1;stroke-width:8.9244;stroke-linecap:butt;stroke-linejoin:miter;stroke-miterlimit:10;stroke-dasharray:8.9244,26.7732;stroke-dashoffset:0"
         id="path238" /><path
         d="m 8858.16,1815.91 -118.99,0"
         style="fill:none;stroke:#dcdcdc;stroke-opacity:1;stroke-width:8.9244;stroke-linecap:butt;stroke-linejoin:miter;stroke-miterlimit:10;stroke-dasharray:8.9244,26.7732;stroke-dashoffset:0"
         id="path240" /><path
         d="m 757.777,3081.99 118.993,0"
         style="fill:none;stroke:#dcdcdc;stroke-opacity:1;stroke-width:8.9244;stroke-linecap:butt;stroke-linejoin:miter;stroke-miterlimit:10;stroke-dasharray:8.9244,26.7732;stroke-dashoffset:0"
         id="path242" /><path
         d="m 8858.16,3081.99 -118.99,0"
         style="fill:none;stroke:#dcdcdc;stroke-opacity:1;stroke-width:8.9244;stroke-linecap:butt;stroke-linejoin:miter;stroke-miterlimit:10;stroke-dasharray:8.9244,26.7732;stroke-dashoffset:0"
         id="path244" /><path
         d="m 757.777,4348.06 118.993,0"
         style="fill:none;stroke:#dcdcdc;stroke-opacity:1;stroke-width:8.9244;stroke-linecap:butt;stroke-linejoin:miter;stroke-miterlimit:10;stroke-dasharray:8.9244,26.7732;stroke-dashoffset:0"
         id="path246" /><path
         d="m 8858.16,4348.06 -118.99,0"
         style="fill:none;stroke:#dcdcdc;stroke-opacity:1;stroke-width:8.9244;stroke-linecap:butt;stroke-linejoin:miter;stroke-miterlimit:10;stroke-dasharray:8.9244,26.7732;stroke-dashoffset:0"
         id="path248" /><path
         d="m 757.777,5614.14 118.993,0"
         style="fill:none;stroke:#dcdcdc;stroke-opacity:1;stroke-width:8.9244;stroke-linecap:butt;stroke-linejoin:miter;stroke-miterlimit:10;stroke-dasharray:8.9244,26.7732;stroke-dashoffset:0"
         id="path250" /><path
         d="m 8858.16,5614.14 -118.99,0"
         style="fill:none;stroke:#dcdcdc;stroke-opacity:1;stroke-width:8.9244;stroke-linecap:butt;stroke-linejoin:miter;stroke-miterlimit:10;stroke-dasharray:8.9244,26.7732;stroke-dashoffset:0"
         id="path252" /><g
         id="g254"
         transform="scale(10,10)"><text
   transform="matrix(1,0,0,-1,43.65,46.2379)"
   id="text256"><tspan
     style="fill:#000000;fill-opacity:1;fill-rule:nonzero;stroke:none;font-family:Times New Roman;font-variant:normal;font-weight:normal;font-size:26.6542;writing-mode:lr;-inkscape-font-specification:Times-Roman"
     x="0 13.3271"
     y="0"
     sodipodi:role="line"
     id="tspan258">20</tspan><tspan
     style="fill:#000000;fill-opacity:1;fill-rule:nonzero;stroke:none;font-family:Times New Roman;font-variant:normal;font-weight:normal;font-size:26.6542;writing-mode:lr;-inkscape-font-specification:Times-Roman"
     x="0 13.3271"
     y="-126.607"
     sodipodi:role="line"
     id="tspan260">40</tspan><tspan
     style="fill:#000000;fill-opacity:1;fill-rule:nonzero;stroke:none;font-family:Times New Roman;font-variant:normal;font-weight:normal;font-size:26.6542;writing-mode:lr;-inkscape-font-specification:Times-Roman"
     x="0 13.3271"
     y="-253.096"
     sodipodi:role="line"
     id="tspan262">60</tspan><tspan
     style="fill:#000000;fill-opacity:1;fill-rule:nonzero;stroke:none;font-family:Times New Roman;font-variant:normal;font-weight:normal;font-size:26.6542;writing-mode:lr;-inkscape-font-specification:Times-Roman"
     x="0 13.3271"
     y="-379.823"
     sodipodi:role="line"
     id="tspan264">80</tspan><tspan
     style="fill:#000000;fill-opacity:1;fill-rule:nonzero;stroke:none;font-family:Times New Roman;font-variant:normal;font-weight:normal;font-size:26.6542;writing-mode:lr;-inkscape-font-specification:Times-Roman"
     x="-13.2082 0.1189 13.446"
     y="-506.43"
     sodipodi:role="line"
     id="tspan266">100</tspan></text>

<text
   transform="matrix(0,1,1,0,0,0)"
   id="text268"
   style="font-size:33.59999847px;font-style:normal;font-variant:normal;font-weight:normal;font-stretch:normal;text-align:start;line-height:125%;writing-mode:lr-tb;text-anchor:start;font-family:Sans;-inkscape-font-specification:Sans"
   sodipodi:linespacing="125%"
   x="145.14813"
   y="32.965202"><tspan
     style="font-size:33.59999847px;font-style:normal;font-variant:normal;font-weight:normal;font-stretch:normal;text-align:start;line-height:125%;writing-mode:lr-tb;text-anchor:start;fill:#000000;fill-opacity:1;fill-rule:nonzero;stroke:none;font-family:Sans;-inkscape-font-specification:Sans"
     x="145.14813"
     sodipodi:role="line"
     id="tspan270"
     y="32.965202">Durée de vie [jours]</tspan></text>

</g><path
         d="m 757.777,549.84 8100.38,0 0,5064.3 -8100.38,0 0,-5064.3 z"
         style="fill:none;stroke:#000000;stroke-opacity:1;stroke-width:8.9244;stroke-linecap:butt;stroke-linejoin:miter;stroke-miterlimit:10;stroke-dasharray:none"
         id="path272" /><path
         d="m 5647.16,4928.15 1715.86,0 0,291.531 -1715.86,0 0,-291.531 z"
         style="fill:#ffffff;fill-opacity:1;fill-rule:nonzero;stroke:none"
         id="path274" /><path
         d="m 5647.16,4928.15 2737.8328,0 0,348.0506 -2737.8328,0 0,-348.0506 z"
         style="fill:none;stroke:#000000;stroke-width:12.31743717;stroke-linecap:butt;stroke-linejoin:miter;stroke-miterlimit:10;stroke-opacity:1;stroke-dasharray:none"
         id="path276"
         inkscape:connector-curvature="0" /><g
         id="g278"
         transform="matrix(10,0,0,10,-182.8629,0)"><text
   transform="matrix(1,0,0,-1,611.599,499.003)"
   id="text280"><tspan
     style="font-size:24.98830032px;font-variant:normal;font-weight:normal;writing-mode:lr-tb;fill:#000000;fill-opacity:1;fill-rule:nonzero;stroke:none;font-family:Times New Roman;-inkscape-font-specification:Times-Roman"
     sodipodi:role="line"
     id="tspan282"
     x="0"
     y="0" /></text>

<text
   xml:space="preserve"
   style="font-size:40px;font-style:normal;font-weight:normal;line-height:125%;letter-spacing:0px;word-spacing:0px;fill:#000000;fill-opacity:1;stroke:none;font-family:Sans"
   x="856.71271"
   y="74.065521"
   id="text3263"
   sodipodi:linespacing="125%"
   transform="matrix(0.8,0,0,-0.8,0,572)"><tspan
     sodipodi:role="line"
     id="tspan3265"
     x="856.71271"
     y="74.065521" /></text>

<text
   xml:space="preserve"
   style="font-size:40px;font-style:normal;font-weight:normal;line-height:125%;letter-spacing:0px;word-spacing:0px;fill:#000000;fill-opacity:1;stroke:none;font-family:Sans"
   x="856.71271"
   y="74.065521"
   id="text3267"
   sodipodi:linespacing="125%"
   transform="matrix(0.8,0,0,-0.8,0,572)"><tspan
     sodipodi:role="line"
     id="tspan3269"
     x="856.71271"
     y="74.065521" /></text>

<text
   xml:space="preserve"
   style="font-size:33.60000012px;font-style:normal;font-weight:normal;line-height:125%;letter-spacing:0px;word-spacing:0px;fill:#000000;fill-opacity:1;stroke:none;font-family:Sans;-inkscape-font-specification:Sans;font-stretch:normal;font-variant:normal;text-anchor:start;text-align:start;writing-mode:lr"
   x="659.53406"
   y="-458.65839"
   id="text3271"
   sodipodi:linespacing="125%"
   transform="scale(0.92095481,-1.0858296)"><tspan
     sodipodi:role="line"
     id="tspan3273"
     x="659.53406"
     y="-458.65839">Front de Pareto </tspan><tspan
     sodipodi:role="line"
     x="659.53406"
     y="-429.43628"
     id="tspan3275" /></text>

</g><path
         d="m 5818.51,5073.91 c 0,29.57 -23.98,53.55 -53.55,53.55 -29.57,0 -53.55,-23.98 -53.55,-53.55 0,-29.57 23.98,-53.54 53.55,-53.54 29.57,0 53.55,23.97 53.55,53.54"
         style="fill:none;stroke:#000000;stroke-opacity:1;stroke-width:8.9244;stroke-linecap:butt;stroke-linejoin:miter;stroke-miterlimit:10;stroke-dasharray:none"
         id="path284" /></g></g></svg>